<?xml version="1.0" encoding="utf-8"?>
<!-- Generator: Adobe Illustrator 24.0.0, SVG Export Plug-In . SVG Version: 6.00 Build 0)  -->
<svg version="1.1" id="Capa_1" xmlns="http://www.w3.org/2000/svg" xmlns:xlink="http://www.w3.org/1999/xlink" x="0px" y="0px"
	 viewBox="0 0 67 75" style="enable-background:new 0 0 67 75;" xml:space="preserve">
<style type="text/css">
	.st0{fill:#FFFFFF;}
</style>
<g>
	<g>
		<g>
			<path class="st0" d="M48.6,16.1c5.6-4.5,8.1-4.6,12.1-0.6c6.5,6.3,7,14.3,5.2,22.4c-3.2,14.7-11.6,25.9-24.1,34
				c-6.4,4.2-12.6,3.5-19.1-1.5C13,63,5.7,53.6,2,41.8c-2.2-7.1-2.8-14.3,0.6-21.2c0.9-1.9,2.3-3.7,3.9-5.2
				c3.9-3.8,6.4-3.7,11.1,0.1c-0.4,0.3-0.8,0.6-1.2,0.8c-8,2.3-11,6.2-10.8,14.8C5.9,42.2,11,51.4,18.4,59.3
				c3.1,3.3,6.9,6.1,10.5,8.7c3,2.1,6.3,2,9.4,0c12.3-8.1,20.4-19.1,23-33.7c0.4-2.1,0.4-4.4,0.1-6.5C60.4,21,56.6,16.7,48.6,16.1z"
				/>
			<path class="st0" d="M29.1,8c2.9-2-1-7.6,4.6-7.3c4.9,0.3,1,5.2,4,7.2c0.5-0.2,1.5-0.7,2.4-1.1c4.1-2,8.2-4.1,12.3-6.1
				c1.6-0.8,3.1-1.2,3.9,1.2c0.7,2.1,0.1,3-1.8,3.8C47.5,8.3,41.1,12,35.9,17.4c-1.5,1.6-3,1.6-4.6,0c-5.3-5.3-11.6-9.1-18.6-11.8
				c-2.1-0.8-3-2.3-1.9-4.1c0.5-0.8,2.6-1.2,3.6-0.8c3.9,1.6,7.6,3.6,11.3,5.5C27,6.7,28.1,7.4,29.1,8z"/>
			<path class="st0" d="M52.9,30.9c-1.4,1.6-2.4,2.7-3.4,3.8c-0.9-1.3-2.5-2.5-2.6-3.9c-0.1-1.1,1.6-2.3,2.5-3.5
				C50.5,28.4,51.5,29.5,52.9,30.9z"/>
			<path class="st0" d="M26.4,44.3C25,45.8,24,46.9,23,48c-0.9-1.3-2.4-2.6-2.5-3.9c0-1.2,1.6-2.4,2.5-3.6
				C24,41.6,25,42.7,26.4,44.3z"/>
			<path class="st0" d="M21.2,31.1c-1.5,1.5-2.5,2.5-3.6,3.6c-0.9-1.2-2.4-2.4-2.4-3.7c0-1.2,1.5-2.4,2.4-3.6
				C18.6,28.5,19.7,29.6,21.2,31.1z"/>
			<path class="st0" d="M37.2,31c-1.6,1.6-2.7,2.6-3.8,3.7c-0.8-1.2-2.2-2.5-2.2-3.7c0-1.2,1.5-2.4,2.3-3.7
				C34.5,28.4,35.6,29.4,37.2,31z"/>
			<path class="st0" d="M37,56.4c-1.5,1.5-2.6,2.5-3.6,3.5c-0.8-1.3-2.3-2.5-2.2-3.8c0-1.2,1.6-2.4,2.4-3.6
				C34.6,53.7,35.6,54.8,37,56.4z"/>
			<path class="st0" d="M40.7,44.6c1.4-1.7,2.4-2.8,3.3-4c0.9,1.2,2.5,2.3,2.6,3.5c0,1.2-1.4,2.5-2.3,3.7
				C43.2,46.9,42.2,45.9,40.7,44.6z"/>
		</g>
	</g>
</g>
</svg>
