<svg id="Capa_1" data-name="Capa 1" xmlns="http://www.w3.org/2000/svg" viewBox="0 0 240.73 74.7"><defs><style>.cls-1{fill:#fff;}</style></defs><title>logo-berry</title><path class="cls-1" d="M48.41,16.1c5.56-4.53,8.09-4.57,12.13-.63,6.48,6.33,7,14.33,5.24,22.43C62.6,52.56,54.14,63.8,41.7,72c-6.38,4.17-12.64,3.54-19.14-1.46C12.81,63,5.56,53.61,1.81,41.82-.44,34.74-1,27.52,2.43,20.58a19.38,19.38,0,0,1,3.85-5.16c3.89-3.82,6.43-3.75,11.11.11a5.6,5.6,0,0,1-1.19.76c-8,2.3-11,6.24-10.81,14.78.33,11.16,5.41,20.35,12.84,28.26a73.92,73.92,0,0,0,10.55,8.73c2.95,2.15,6.31,2,9.36,0,12.25-8.1,20.37-19.08,23-33.73a20.64,20.64,0,0,0,.05-6.47C60.18,21,56.42,16.73,48.41,16.1Z" transform="translate(0)"/><path class="cls-1" d="M28.92,8c2.89-2-1-7.6,4.55-7.28,4.92.29,1,5.17,4,7.17.53-.24,1.49-.67,2.43-1.14C44,4.67,48,2.57,52.14.59c1.57-.76,3.11-1.17,3.94,1.22.72,2.05.06,3-1.84,3.75C47.31,8.31,40.93,12,35.71,17.41c-1.51,1.58-3,1.58-4.61,0A54.06,54.06,0,0,0,12.51,5.61c-2.1-.82-3-2.32-1.85-4.11C11.14.73,13.29.27,14.27.67c3.86,1.61,7.57,3.6,11.32,5.48C26.79,6.75,27.94,7.43,28.92,8Z" transform="translate(0)"/><path class="cls-1" d="M52.75,30.93l-3.38,3.8c-.92-1.28-2.46-2.51-2.56-3.85-.07-1.1,1.57-2.33,2.46-3.49Z" transform="translate(0)"/><path class="cls-1" d="M26.24,44.26,22.8,48c-.89-1.29-2.43-2.56-2.48-3.89,0-1.16,1.58-2.39,2.47-3.59Z" transform="translate(0)"/><path class="cls-1" d="M21,31.14l-3.59,3.58C16.57,33.5,15,32.28,15,31.06s1.53-2.43,2.39-3.65Z" transform="translate(0)"/><path class="cls-1" d="M37,31l-3.82,3.7C32.44,33.49,31,32.25,31,31s1.45-2.44,2.26-3.66Z" transform="translate(0)"/><path class="cls-1" d="M36.86,56.44,33.24,60c-.81-1.27-2.26-2.54-2.24-3.8s1.55-2.38,2.42-3.57Z" transform="translate(0)"/><path class="cls-1" d="M40.49,44.56l3.29-4c.93,1.16,2.54,2.29,2.59,3.49s-1.44,2.49-2.26,3.73Z" transform="translate(0)"/><path class="cls-1" d="M109.87,29.91c0,5.58-4.23,8.79-12.46,8.79H81.88V6.16h14.6c7.49,0,11.67,3.16,11.67,8.41a7.7,7.7,0,0,1-4.37,7.25A7.88,7.88,0,0,1,109.87,29.91Zm-23.34-20V20.34h9.53c4.74,0,7.44-1.77,7.44-5.21s-2.7-5.21-7.44-5.21Zm18.64,19.62c0-3.76-2.78-5.44-8-5.44H86.53V34.93H97.22C102.39,34.93,105.17,33.31,105.17,29.54Z" transform="translate(0)"/><path class="cls-1" d="M140.69,34.66v4H117.07V6.16h23v4H121.72v10H138v3.95H121.72V34.66Z" transform="translate(0)"/><path class="cls-1" d="M170,38.7l-7-10c-.65.05-1.35.1-2.05.1h-8v9.9h-4.65V6.16h12.69c8.46,0,13.58,4.27,13.58,11.34a10.29,10.29,0,0,1-7.16,10.28l7.72,10.92Zm-.14-21.2c0-4.65-3.12-7.3-9.07-7.3h-7.9V24.85h7.9C166.72,24.85,169.84,22.15,169.84,17.5Z" transform="translate(0)"/><path class="cls-1" d="M203.77,38.7l-7-10c-.65.05-1.35.1-2,.1h-8.05v9.9H182V6.16h12.7c8.46,0,13.57,4.27,13.57,11.34a10.28,10.28,0,0,1-7.16,10.28l7.72,10.92Zm-.14-21.2c0-4.65-3.11-7.3-9.06-7.3h-7.91V24.85h7.91C200.52,24.85,203.63,22.15,203.63,17.5Z" transform="translate(0)"/><path class="cls-1" d="M227.81,27.45V38.7H223.2V27.36L210.28,6.16h5l10.42,17.15L236.13,6.16h4.6Z" transform="translate(0)"/><path class="cls-1" d="M102.38,62.53c0,3.84-2.8,6-8.4,6H83.83V45.76h9.5c4.88,0,7.84,2.05,7.84,5.83a5.2,5.2,0,0,1-3.8,5.21C100.59,57.42,102.38,59.37,102.38,62.53ZM85.49,47.2v9.08h7.77c3.94,0,6.22-1.53,6.22-4.56S97.2,47.2,93.26,47.2Zm15.23,15.2c0-3.26-2.38-4.69-6.74-4.69H85.49v9.4H94C98.34,67.11,100.72,65.68,100.72,62.4Z" transform="translate(0)"/><path class="cls-1" d="M122.39,62.14H109.17l-2.89,6.41h-1.79L115,45.76h1.66l10.48,22.79h-1.79Zm-.62-1.4-6-13.15-6,13.15Z" transform="translate(0)"/><path class="cls-1" d="M138,57.32l-5.11,5.24v6h-1.66V45.76h1.66V60.41l14.22-14.65h2l-10,10.35,10.71,12.44h-2Z" transform="translate(0)"/><path class="cls-1" d="M169.83,67.05v1.5H154.11V45.76h15.23v1.5H155.77v9h12.14v1.47H155.77v9.34Z" transform="translate(0)"/><path class="cls-1" d="M191.7,68.55l-5.43-7.62a15.88,15.88,0,0,1-2.22.16h-6.51v7.46h-1.66V45.76h8.17c5.73,0,9.18,2.87,9.18,7.69a7,7,0,0,1-5.34,7.12l5.7,8Zm-7.65-8.92c4.88,0,7.49-2.28,7.49-6.18s-2.61-6.19-7.49-6.19h-6.51V59.63Z" transform="translate(0)"/><path class="cls-1" d="M206,60.7v7.85h-1.66V60.7l-9.18-14.94H197l8.24,13.41,8.23-13.41h1.72Z" transform="translate(0)"/></svg>