<?xml version="1.0" encoding="utf-8"?>
<!-- Generator: Adobe Illustrator 24.0.0, SVG Export Plug-In . SVG Version: 6.00 Build 0)  -->
<svg version="1.1" id="Capa_1" xmlns="http://www.w3.org/2000/svg" xmlns:xlink="http://www.w3.org/1999/xlink" x="0px" y="0px"
	 viewBox="0 0 241 75" style="enable-background:new 0 0 241 75;" xml:space="preserve">
<style type="text/css">
	.st0{fill:#FFFFFF;}
</style>
<g>
	<g>
		<g>
			<path class="st0" d="M48.4,16.1c5.6-4.5,8.1-4.6,12.1-0.6c6.5,6.3,7,14.3,5.2,22.4c-3.2,14.7-11.6,25.9-24.1,34
				c-6.4,4.2-12.6,3.5-19.1-1.5C12.8,63,5.6,53.6,1.8,41.8C-0.4,34.7-1,27.5,2.4,20.6c0.9-1.9,2.3-3.7,3.9-5.2
				c3.9-3.8,6.4-3.7,11.1,0.1c-0.4,0.3-0.8,0.6-1.2,0.8c-8,2.3-11,6.2-10.8,14.8c0.3,11.2,5.4,20.4,12.8,28.3
				c3.1,3.3,6.9,6.1,10.5,8.7c3,2.1,6.3,2,9.4,0c12.3-8.1,20.4-19.1,23-33.7c0.4-2.1,0.4-4.4,0.1-6.5C60.2,21,56.4,16.7,48.4,16.1z"
				/>
			<path class="st0" d="M28.9,8c2.9-2-1-7.6,4.6-7.3c4.9,0.3,1,5.2,4,7.2c0.5-0.2,1.5-0.7,2.4-1.1c4.1-2,8.2-4.1,12.3-6.1
				c1.6-0.8,3.1-1.2,3.9,1.2c0.7,2.1,0.1,3-1.8,3.8C47.3,8.3,40.9,12,35.7,17.4c-1.5,1.6-3,1.6-4.6,0c-5.3-5.3-11.6-9.1-18.6-11.8
				c-2.1-0.8-3-2.3-1.9-4.1c0.5-0.8,2.6-1.2,3.6-0.8c3.9,1.6,7.6,3.6,11.3,5.5C26.8,6.7,27.9,7.4,28.9,8z"/>
			<path class="st0" d="M52.7,30.9c-1.4,1.6-2.4,2.7-3.4,3.8c-0.9-1.3-2.5-2.5-2.6-3.9c-0.1-1.1,1.6-2.3,2.5-3.5
				C50.3,28.4,51.3,29.5,52.7,30.9z"/>
			<path class="st0" d="M26.2,44.3c-1.4,1.6-2.4,2.7-3.4,3.8c-0.9-1.3-2.4-2.6-2.5-3.9c0-1.2,1.6-2.4,2.5-3.6
				C23.8,41.6,24.8,42.7,26.2,44.3z"/>
			<path class="st0" d="M21,31.1c-1.5,1.5-2.5,2.5-3.6,3.6c-0.9-1.2-2.4-2.4-2.4-3.7c0-1.2,1.5-2.4,2.4-3.6
				C18.5,28.5,19.5,29.6,21,31.1z"/>
			<path class="st0" d="M37,31c-1.6,1.6-2.7,2.6-3.8,3.7C32.4,33.5,31,32.2,31,31c0-1.2,1.5-2.4,2.3-3.7C34.3,28.4,35.4,29.4,37,31z
				"/>
			<path class="st0" d="M36.9,56.4c-1.5,1.5-2.6,2.5-3.6,3.5c-0.8-1.3-2.3-2.5-2.2-3.8c0-1.2,1.6-2.4,2.4-3.6
				C34.4,53.7,35.4,54.8,36.9,56.4z"/>
			<path class="st0" d="M40.5,44.6c1.4-1.7,2.4-2.8,3.3-4c0.9,1.2,2.5,2.3,2.6,3.5c0,1.2-1.4,2.5-2.3,3.7
				C43.1,46.9,42,45.9,40.5,44.6z"/>
		</g>
	</g>
	<g>
		<g>
			<path class="st0" d="M109.9,29.9c0,5.6-4.2,8.8-12.5,8.8H81.9V6.2h14.6c7.5,0,11.7,3.2,11.7,8.4c0,3.5-1.8,6-4.4,7.3
				C107.5,22.8,109.9,25.6,109.9,29.9z M86.5,9.9v10.4h9.5c4.7,0,7.4-1.8,7.4-5.2s-2.7-5.2-7.4-5.2H86.5z M105.2,29.5
				c0-3.8-2.8-5.4-8-5.4H86.5v10.8h10.7C102.4,34.9,105.2,33.3,105.2,29.5z"/>
			<path class="st0" d="M140.7,34.7v4h-23.6V6.2h23v4h-18.3v10H138v4h-16.3v10.5H140.7z"/>
			<path class="st0" d="M170,38.7l-7-10c-0.7,0-1.3,0.1-2,0.1h-8v9.9h-4.6V6.2h12.7c8.5,0,13.6,4.3,13.6,11.3c0,5-2.6,8.6-7.2,10.3
				l7.7,10.9H170z M169.8,17.5c0-4.6-3.1-7.3-9.1-7.3h-7.9v14.6h7.9C166.7,24.8,169.8,22.1,169.8,17.5z"/>
			<path class="st0" d="M203.8,38.7l-7-10c-0.7,0-1.3,0.1-2,0.1h-8v9.9H182V6.2h12.7c8.5,0,13.6,4.3,13.6,11.3c0,5-2.6,8.6-7.2,10.3
				l7.7,10.9H203.8z M203.6,17.5c0-4.6-3.1-7.3-9.1-7.3h-7.9v14.6h7.9C200.5,24.8,203.6,22.1,203.6,17.5z"/>
			<path class="st0" d="M227.8,27.4v11.3h-4.6V27.4L210.3,6.2h5l10.4,17.2l10.5-17.2h4.6L227.8,27.4z"/>
		</g>
		<g>
			<path class="st0" d="M102.4,62.5c0,3.8-2.8,6-8.4,6H83.8V45.8h9.5c4.9,0,7.8,2.1,7.8,5.8c0,2.7-1.5,4.5-3.8,5.2
				C100.6,57.4,102.4,59.4,102.4,62.5z M85.5,47.2v9.1h7.8c3.9,0,6.2-1.5,6.2-4.6c0-3-2.3-4.5-6.2-4.5H85.5z M100.7,62.4
				c0-3.3-2.4-4.7-6.7-4.7h-8.5v9.4H94C98.3,67.1,100.7,65.7,100.7,62.4z"/>
			<path class="st0" d="M122.4,62.1h-13.2l-2.9,6.4h-1.8L115,45.8h1.7l10.5,22.8h-1.8L122.4,62.1z M121.8,60.7l-6-13.1l-6,13.1
				H121.8z"/>
			<path class="st0" d="M138,57.3l-5.1,5.2v6h-1.7V45.8h1.7v14.6l14.2-14.6h2l-10,10.3l10.7,12.4h-2L138,57.3z"/>
			<path class="st0" d="M169.8,67.1v1.5h-15.7V45.8h15.2v1.5h-13.6v9h12.1v1.5h-12.1v9.3H169.8z"/>
			<path class="st0" d="M191.7,68.5l-5.4-7.6c-0.7,0.1-1.4,0.2-2.2,0.2h-6.5v7.5h-1.7V45.8h8.2c5.7,0,9.2,2.9,9.2,7.7
				c0,3.6-2,6.1-5.3,7.1l5.7,8H191.7z M184.1,59.6c4.9,0,7.5-2.3,7.5-6.2c0-3.9-2.6-6.2-7.5-6.2h-6.5v12.4H184.1z"/>
			<path class="st0" d="M206,60.7v7.8h-1.7v-7.8l-9.2-14.9h1.8l8.2,13.4l8.2-13.4h1.7L206,60.7z"/>
		</g>
	</g>
</g>
</svg>
